# File created by Blade
# Date/Time:  Wed Apr 08 17:04:14 2015
#---------------------------------------------------------
:version 1.10
:name HOM
:units
  mass 1.0
  length 1.000000
  angle deg
:documentation
     Acclaim Skeleton File
:root
   axis xyz
   order TX TY TZ RX RY RZ
   position 0.000000 0.000000 0.000000
   orientation 0 0 0
:bonedata
   begin
      id 1
      name Spine_dum
      direction 0.000000 1.000000 0.000000
      length 5.893853
      axis 0.0 0.0 0.0 xyz
   end
   begin
      id 2
      name LeftUpLeg_dum
      direction 1.000000 0.000000 0.000000
      length 3.697939
      axis 0.0 0.0 0.0 xyz
   end
   begin
      id 3
      name RightUpLeg_dum
      direction -1.000000 0.000000 0.000000
      length 3.697939
      axis 0.0 0.0 0.0 xyz
   end
   begin
      id 4
      name Spine
      direction 0.000000 1.000000 0.000000
      length 0.000000
      axis 0.0 0.0 0.0 xyz
      dof rx ry rz
   end
   begin
      id 5
      name Spine_dum1
      direction 0.000000 1.000000 0.000000
      length 16.447146
      axis 0.0 0.0 0.0 xyz
   end
   begin
      id 6
      name Spine_dum2
      direction 0.000000 1.000000 0.000000
      length 10.900383
      axis 0.0 0.0 0.0 xyz
   end
   begin
      id 7
      name Spine_dum3
      direction 0.000000 1.000000 0.000000
      length 10.900383
      axis 0.0 0.0 0.0 xyz
   end
   begin
      id 8
      name Head
      direction 0.000000 1.000000 0.000000
      length 4.527550
      axis 0.0 0.0 0.0 xyz
      dof rx ry rz
   end
   begin
      id 9
      name LeftShoulder
      direction 1.000000 0.000000 0.000000
      length 8.219464
      axis 0.0 0.0 -90.0 xyz
      dof rx ry rz
   end
   begin
      id 10
      name LeftArm
      direction 1.000000 0.000000 0.000000
      length 11.094937
      axis 0.0 0.0 -90.0 xyz
      dof rx ry rz
   end
   begin
      id 11
      name LeftForeArm
      direction 1.000000 0.000000 0.000000
      length 9.103875
      axis 0.0 0.0 -90.0 xyz
      dof ry rz rx
   end
   begin
      id 12
      name LeftHand
      direction 0.000000 0.000000 0.000000
      length 0.000000
      axis 0.0 0.0 -90.0 xyz
      dof rx ry rz
   end
   begin
      id 13
      name LeftHand_dum1
      direction 0.000000 0.000000 0.000000
      length 0.000000
      axis 0.0 0.0 -90.0 xyz
   end
   begin
      id 14
      name LeftHand_dum2
      direction 1.000000 0.000000 0.000000
      length 3.937000
      axis 0.0 0.0 -90.0 xyz
   end
   begin
      id 15
      name LeftHandThumb1
      direction 0.000000 0.000000 1.000000
      length 3.937000
      axis 0.0 0.0 -90.0 xyz
      dof rx rz ry
   end
   begin
      id 16
      name RightShoulder
      direction -1.000000 0.000000 0.000000
      length 8.219464
      axis 0.0 0.0 90.0 xyz
      dof rx ry rz
   end
   begin
      id 17
      name RightArm
      direction -1.000000 0.000000 0.000000
      length 11.094937
      axis 0.0 0.0 90.0 xyz
      dof rx ry rz
   end
   begin
      id 18
      name RightForeArm
      direction -1.000000 0.000000 0.000000
      length 9.103875
      axis 0.0 0.0 90.0 xyz
      dof ry rz rx
   end
   begin
      id 19
      name RightHand
      direction 0.000000 0.000000 0.000000
      length 0.000000
      axis 0.0 0.0 90.0 xyz
      dof rx ry rz
   end
   begin
      id 20
      name RightHand_dum1
      direction 0.000000 0.000000 0.000000
      length 0.000000
      axis 0.0 0.0 90.0 xyz
   end
   begin
      id 21
      name RightHand_dum2
      direction -1.000000 0.000000 0.000000
      length 3.937000
      axis 0.0 0.0 90.0 xyz
   end
   begin
      id 22
      name RightHandThumb1
      direction 0.000000 0.000000 1.000000
      length 3.937000
      axis 0.0 0.0 90.0 xyz
      dof rx rz ry
   end
   begin
      id 23
      name LeftUpLeg
      direction 0.000000 -1.000000 0.000000
      length 16.181467
      axis 0.0 0.0 0.0 xyz
      dof rx ry rz
   end
   begin
      id 24
      name LeftLeg
      direction 0.000000 -1.000000 0.000000
      length 16.501392
      axis 0.0 0.0 0.0 xyz
      dof rx ry rz
   end
   begin
      id 25
      name LeftFoot
      direction 0.000000 -0.258819 0.965926
      length 6.408245
      axis 15.0 0.0 0.0 xyz
      dof rx ry rz
   end
   begin
      id 26
      name LeftToeBase
      direction 0.000000 0.000000 1.000000
      length 2.952750
      axis 0.0 0.0 0.0 xyz
      dof rx ry rz
   end
   begin
      id 27
      name RightUpLeg
      direction 0.000000 -1.000000 0.000000
      length 16.181467
      axis 0.0 0.0 0.0 xyz
      dof rx ry rz
   end
   begin
      id 28
      name RightLeg
      direction 0.000000 -1.000000 0.000000
      length 16.501392
      axis 0.0 0.0 0.0 xyz
      dof rx ry rz
   end
   begin
      id 29
      name RightFoot
      direction 0.000000 -0.258819 0.965926
      length 6.408245
      axis 15.0 0.0 0.0 xyz
      dof rx ry rz
   end
   begin
      id 30
      name RightToeBase
      direction 0.000000 0.000000 1.000000
      length 2.952750
      axis 0.0 0.0 0.0 xyz
      dof rx ry rz
   end
:hierarchy
   begin
      root Spine_dum LeftUpLeg_dum RightUpLeg_dum
      Spine_dum Spine
      LeftUpLeg_dum LeftUpLeg
      RightUpLeg_dum RightUpLeg
      Spine Spine_dum1 Spine_dum2 Spine_dum3
      Spine_dum1 Head
      Spine_dum2 LeftShoulder
      Spine_dum3 RightShoulder
      LeftShoulder LeftArm
      LeftArm LeftForeArm
      LeftForeArm LeftHand
      LeftHand LeftHand_dum1 LeftHand_dum2
      LeftHand_dum1 LeftHandThumb1
      RightShoulder RightArm
      RightArm RightForeArm
      RightForeArm RightHand
      RightHand RightHand_dum1 RightHand_dum2
      RightHand_dum1 RightHandThumb1
      LeftUpLeg LeftLeg
      LeftLeg LeftFoot
      LeftFoot LeftToeBase
      RightUpLeg RightLeg
      RightLeg RightFoot
      RightFoot RightToeBase
   end

# File created by Blade
# Date/Time:  Wed Apr 08 17:04:22 2015
# Frame Rate: 120.000 fps
#------------------------------------------------------
:FULLY-SPECIFIED
:DEGREES
313
root 4.007976 35.993612 3.696736 -155.641352 -72.976999 179.602751
Spine -24.315604 -17.827781 -5.034662
Head 34.894992 -15.337873 -7.886267
LeftShoulder 13.222019 -10.604363 33.729702
LeftArm 100.845096 37.990867 -46.650532
LeftForeArm 17.988477 -0.000000 96.102411
LeftHand -20.094427 -0.000000 -3.048350
LeftHandThumb1 -26.253704 0.000000 33.147579
RightShoulder -2.030115 -52.102124 -32.142504
RightArm 50.855994 16.187249 55.037198
RightForeArm 63.695296 -0.000000 67.185181
RightHand 11.570487 -0.000000 1.390597
RightHandThumb1 -24.326973 -0.000000 -32.862282
LeftUpLeg -25.796292 16.002593 -3.561912
LeftLeg 16.956698 -0.000000 -0.000000
LeftFoot -17.860121 13.586443 -15.766916
LeftToeBase 9.066805 -0.000000 -0.000000
RightUpLeg -32.290217 -0.038400 -10.102580
RightLeg 16.050130 -0.000000 -0.000000
RightFoot -8.114036 5.191145 18.305969
RightToeBase 12.759791 -0.000000 -0.000000
314
root 4.007064 35.993337 3.693748 -155.667487 -72.977864 179.627085
Spine -24.305086 -17.853000 -5.044295
Head 35.010131 -15.365076 -7.936344
LeftShoulder 13.256730 -10.571921 33.690860
LeftArm 100.904070 37.986780 -46.613136
LeftForeArm 17.889294 0.000000 96.044547
LeftHand -20.082873 0.000000 -3.005651
LeftHandThumb1 -26.253704 0.000000 33.147579
RightShoulder -1.982985 -52.037362 -32.192766
RightArm 50.764474 16.456420 55.337897
RightForeArm 62.902877 -0.000000 65.889672
RightHand 11.770897 0.000000 0.982210
RightHandThumb1 -24.326973 -0.000000 -32.862282
LeftUpLeg -25.794460 16.014033 -3.551599
LeftLeg 16.962235 -0.000000 -0.000000
LeftFoot -17.858745 13.574929 -15.764972
LeftToeBase 9.063245 -0.000000 -0.000000
RightUpLeg -32.284778 -0.035922 -10.093892
RightLeg 16.048382 -0.000000 -0.000000
RightFoot -8.114953 5.209823 18.338171
RightToeBase 12.777680 -0.000000 -0.000000
315
root 4.006572 35.993753 3.690958 -155.676573 -72.981792 179.639143
Spine -24.296046 -17.878308 -5.061828
Head 35.112817 -15.403433 -7.955842
LeftShoulder 13.282479 -10.556380 33.674216
LeftArm 100.950144 37.999646 -46.571663
LeftForeArm 17.753528 -0.000000 95.982233
LeftHand -19.948549 0.000000 -2.879912
LeftHandThumb1 -26.253704 0.000000 33.147579
RightShoulder -1.979348 -52.039035 -32.206730
RightArm 50.751624 16.751861 55.600199
RightForeArm 61.901458 -0.000000 64.531282
RightHand 11.900761 -0.000000 0.669844
RightHandThumb1 -24.326973 -0.000000 -32.862282
LeftUpLeg -25.801570 16.014828 -3.542903
LeftLeg 16.971899 -0.000000 -0.000000
LeftFoot -17.851482 13.568858 -15.770803
LeftToeBase 9.035820 -0.000000 -0.000000
RightUpLeg -32.281727 -0.029390 -10.091270
RightLeg 16.041127 -0.000000 -0.000000
RightFoot -8.108127 5.206198 18.347343
RightToeBase 12.750900 -0.000000 -0.000000
316
root 4.006281 35.994307 3.687638 -155.690743 -72.988303 179.656883
Spine -24.290619 -17.910740 -5.080404
Head 35.239579 -15.450924 -7.972540
LeftShoulder 13.334985 -10.563615 33.654440
LeftArm 100.956929 38.011561 -46.559414
LeftForeArm 17.595728 -0.000000 95.955319
LeftHand -19.937135 -0.000000 -2.819010
LeftHandThumb1 -26.253704 0.000000 33.147579
RightShoulder -1.951144 -52.031655 -32.213618
RightArm 50.708342 17.031747 55.782551
RightForeArm 60.793471 -0.000000 63.143186
RightHand 12.070973 -0.000000 0.273799
RightHandThumb1 -24.326973 -0.000000 -32.862282
LeftUpLeg -25.805059 16.034994 -3.537720
LeftLeg 16.972113 -0.000000 -0.000000
LeftFoot -17.842467 13.549405 -15.755442
LeftToeBase 9.081232 -0.000000 -0.000000
RightUpLeg -32.278287 -0.036262 -10.079211
RightLeg 16.035357 -0.000000 -0.000000
RightFoot -8.097509 5.216719 18.379381
RightToeBase 12.781965 -0.000000 -0.000000
317
root 4.006026 35.995689 3.683850 -155.703638 -73.004453 179.676047
Spine -24.289681 -17.956044 -5.093356
Head 35.363206 -15.507653 -7.986329
LeftShoulder 13.356448 -10.689417 33.660441
LeftArm 100.801994 38.156913 -46.690602
LeftForeArm 17.463360 -0.000000 95.952048
LeftHand -19.883925 -0.000000 -2.842579
LeftHandThumb1 -26.253704 0.000000 33.147579
RightShoulder -1.873152 -51.975248 -32.241897
RightArm 50.602066 17.305782 55.973770
RightForeArm 59.821074 -0.000000 61.718833
RightHand 12.169718 -0.000000 0.061090
RightHandThumb1 -24.326973 -0.000000 -32.862282
LeftUpLeg -25.803783 16.040035 -3.525441
LeftLeg 16.956062 -0.000000 -0.000000
LeftFoot -17.822672 13.525831 -15.768793
LeftToeBase 9.038959 -0.000000 -0.000000
RightUpLeg -32.271926 -0.045222 -10.065914
RightLeg 16.022028 -0.000000 -0.000000
RightFoot -8.081833 5.224904 18.384111
RightToeBase 12.754463 -0.000000 -0.000000
318
root 4.005957 35.996966 3.679351 -155.753719 -73.018478 179.732024
Spine -24.287332 -17.992350 -5.104378
Head 35.495972 -15.603087 -8.004138
LeftShoulder 13.408826 -10.692375 33.673213
LeftArm 100.719194 38.197491 -46.764787
LeftForeArm 17.318111 -0.000000 95.969708
LeftHand -19.843652 -0.000000 -2.921496
LeftHandThumb1 -26.253704 0.000000 33.147579
RightShoulder -1.839019 -51.981828 -32.242030
RightArm 50.578348 17.539786 56.101433
RightForeArm 59.109881 0.000000 60.205110
RightHand 12.117999 -0.000000 -0.019004
RightHandThumb1 -24.326973 -0.000000 -32.862282
LeftUpLeg -25.806720 16.080356 -3.513239
LeftLeg 16.947341 -0.000000 -0.000000
LeftFoot -17.806164 13.493588 -15.747100
LeftToeBase 9.038950 -0.000000 -0.000000
RightUpLeg -32.263025 -0.044604 -10.043065
RightLeg 16.006105 -0.000000 -0.000000
RightFoot -8.068369 5.224648 18.421087
RightToeBase 12.733441 -0.000000 -0.000000
